<svg xmlns="http://www.w3.org/2000/svg" width="32" height="32" viewBox="0 0 32 32">
    <g fill="none" fill-rule="evenodd" transform="translate(1 1)">
        <circle cx="15" cy="15" r="15" stroke="#8CE1D7" stroke-width="2"/>
        <path fill="#8CE1D7" d="M19.8 13.968c.256 0 .472.084.648.252.176.168.264.38.264.636a.842.842 0 0 1-.264.636.903.903 0 0 1-.648.252h-4.056V19.8a.903.903 0 0 1-.252.648.842.842 0 0 1-.636.264.842.842 0 0 1-.636-.264.903.903 0 0 1-.252-.648v-4.056H9.912a.881.881 0 0 1-.648-.264.853.853 0 0 1-.264-.624c0-.256.088-.468.264-.636a.903.903 0 0 1 .648-.252h4.056V9.912c0-.256.084-.472.252-.648A.842.842 0 0 1 14.856 9c.256 0 .468.088.636.264a.903.903 0 0 1 .252.648v4.056H19.8z"/>
    </g>
</svg>
