<svg xmlns="http://www.w3.org/2000/svg" width="52" height="55" viewBox="0 0 52 55">
    <g fill="none" fill-rule="evenodd" transform="translate(1 1)">
        <path stroke="#FFF" stroke-linecap="round" stroke-linejoin="round" stroke-width="1.865" d="M31.813 3.64v44.828a3.63 3.63 0 0 1-1.047 2.553 3.553 3.553 0 0 1-2.526 1.058h-6.36c-1.923 0-3.482-1.576-3.482-3.52V3.641c0-1.944 1.56-3.52 3.482-3.52h6.45c1.924 0 3.483 1.576 3.483 3.52z"/>
        <path stroke="#FFF" stroke-linecap="round" stroke-linejoin="round" stroke-width="1.865" d="M21.824.392c-1.943 0-3.52 1.56-3.52 3.482V48.32"/>
        <rect width="51.963" height="13.435" x="-18.736" y="19.385" stroke="#FFF" stroke-width="1.865" rx="3.285" transform="rotate(90 7.245 26.103)"/>
        <path stroke="#FFF" stroke-linecap="round" stroke-linejoin="round" stroke-width="1.865" d="M3.975.392C2.03.392.455 1.952.455 3.874V48.32M49.732 3.64v44.833a3.63 3.63 0 0 1-1.046 2.553 3.553 3.553 0 0 1-2.526 1.058H39.8c-1.924 0-3.482-1.576-3.482-3.52V3.641c0-1.944 1.558-3.52 3.482-3.52h6.45c1.923 0 3.482 1.576 3.482 3.52z"/>
        <path stroke="#FFF" stroke-linecap="round" stroke-linejoin="round" stroke-width="1.865" d="M39.744.392c-1.944 0-3.52 1.56-3.52 3.482V48.32M7.243 14.718v31.207"/>
        <ellipse cx="7.243" cy="8.31" fill="#FFF" fill-rule="nonzero" rx="2.962" ry="2.931"/>
        <path stroke="#FFF" stroke-linecap="round" stroke-linejoin="round" stroke-width="1.865" d="M25.092 25.917v20.008M25.092 5.38v12.735M43.58 36.586V5.38"/>
        <ellipse cx="43.579" cy="42.994" fill="#FFF" fill-rule="nonzero" stroke="#FFF" stroke-width="1.49" rx="2.368" ry="2.343"/>
        <ellipse cx="25.092" cy="24.544" fill="#FFF" fill-rule="nonzero" stroke="#FFF" stroke-width="1.49" rx="2.368" ry="2.343"/>
    </g>
</svg>
