<svg xmlns="http://www.w3.org/2000/svg" width="25" height="24" viewBox="0 0 25 24">
    <g fill="#4A4A4A" fill-rule="nonzero">
        <path d="M23.978 1.402h-4.766V.706A.717.717 0 0 0 18.485 0a.717.717 0 0 0-.727.706v.696h-4.25V.706A.717.717 0 0 0 12.783 0a.717.717 0 0 0-.728.706v.696H7.986V.706A.717.717 0 0 0 7.26 0a.717.717 0 0 0-.727.706v.696H1.586a.717.717 0 0 0-.728.706v15.95c0 .39.326.706.728.706h4.463c.716 2.966 3.462 5.182 6.733 5.182 3.27 0 6.017-2.216 6.732-5.182h4.464a.717.717 0 0 0 .727-.706V2.108a.717.717 0 0 0-.727-.706zM6.532 2.814v.638c0 .39.325.706.727.706a.717.717 0 0 0 .727-.706v-.638h4.068v.638c0 .39.326.706.728.706a.717.717 0 0 0 .727-.706v-.638h4.249v.638c0 .39.325.706.727.706a.717.717 0 0 0 .727-.706v-.638h4.038V5.7H2.313V2.814h4.219zm6.25 19.72c-3.012 0-5.461-2.377-5.461-5.3 0-2.922 2.45-5.3 5.46-5.3 3.012 0 5.462 2.377 5.462 5.3s-2.45 5.3-5.461 5.3zm6.912-5.182c0-.04.003-.078.003-.118 0-3.7-3.102-6.712-6.915-6.712-3.814 0-6.916 3.011-6.916 6.712 0 .04.003.078.003.118H2.313V7.112H23.25v10.24h-3.556z"/>
        <path d="M13.602 17.412v-3.415c0-.39-.367-.705-.82-.705-.453 0-.82.316-.82.705v3.708a.66.66 0 0 0 .24.499l1.885 1.622a.89.89 0 0 0 .58.207.89.89 0 0 0 .58-.207.639.639 0 0 0 0-.998l-1.645-1.416z"/>
    </g>
</svg>
