<svg xmlns="http://www.w3.org/2000/svg" width="44" height="51"><g fill="none" fill-rule="evenodd"><path stroke="#FFF" stroke-width="1.863" d="M14.734 14.094h21.473m3.517 6.659H4.017c-1.546 0-2.798-1.24-2.798-2.77V9.79c0-1.53 1.252-2.77 2.798-2.77h35.707c1.545 0 2.798 1.24 2.798 2.77v8.191c0 1.53-1.253 2.77-2.798 2.77z"/><path stroke="#FFF" stroke-linecap="round" stroke-linejoin="round" stroke-width="1.863" d="M4.017 7.02h35.707c1.545 0 2.798 1.241 2.798 2.771v6.41"/><path stroke="#FFF" stroke-linecap="round" stroke-linejoin="round" stroke-width="1.863" d="M32.528 7.02H4.016c-1.545 0-2.798 1.241-2.798 2.771v4.63m38.506 21.845H4.017c-1.546 0-2.798-1.24-2.798-2.77v-3.294c0-1.53 1.252-2.77 2.798-2.77h35.707c1.545 0 2.798 1.24 2.798 2.77v3.293c0 1.53-1.253 2.77-2.798 2.77z"/><path stroke="#FFF" stroke-linecap="round" stroke-linejoin="round" stroke-width="1.863" d="M27.131 27.431H4.017c-1.546 0-2.799 1.24-2.799 2.77v2.404m31.76-5.174h3.418m3.328 13.802H4.017c-1.546 0-2.798 1.31-2.798 2.84v1.068c0 1.53 1.252 2.77 2.798 2.77h35.707c1.545 0 2.798-1.24 2.798-2.77v-1.067c0-1.53-1.253-2.84-2.798-2.84z"/><path stroke="#FFF" stroke-linecap="round" stroke-linejoin="round" stroke-width="1.863" d="M17.508 47.912h22.215c1.546 0 2.799-1.24 2.799-2.771v.268m-32.03-4.176H4.017c-1.546 0-2.798 1.17-2.798 2.7v.178M37.797 17.79v7.01M6.255 38.988v4.784m27.878 1.113v4.785M9.257 24.807v13.244m33.154-18.627v4.785"/><path fill="#7C57B4" d="M11.114 13.461c0 1.329-1.088 2.405-2.43 2.405-1.341 0-2.43-1.076-2.43-2.405 0-1.328 1.089-2.405 2.43-2.405 1.342 0 2.43 1.077 2.43 2.405"/><path fill="#6037A6" d="M11.114 13.461c0 1.329-1.088 2.405-2.43 2.405-1.341 0-2.43-1.076-2.43-2.405 0-1.328 1.089-2.405 2.43-2.405 1.342 0 2.43 1.077 2.43 2.405"/><path fill="#FFF" d="M11.114 13.906c0 1.329-1.088 2.406-2.43 2.406-1.341 0-2.43-1.077-2.43-2.406 0-1.328 1.089-2.405 2.43-2.405 1.342 0 2.43 1.077 2.43 2.405"/><path stroke="#FFF" stroke-width="1.863" d="M11.114 13.906c0 1.329-1.088 2.406-2.43 2.406-1.341 0-2.43-1.077-2.43-2.406 0-1.328 1.089-2.405 2.43-2.405 1.342 0 2.43 1.077 2.43 2.405z"/></g></svg>