<svg xmlns="http://www.w3.org/2000/svg" viewBox="0 0 214.64 31"><title>logo-loader</title><g style="isolation:isolate"><path d="M123.06,33.95a1,1,0,0,1-.31-0.74v-17a1.14,1.14,0,0,1,.29-0.82,1.2,1.2,0,0,1,1.61,0,1.15,1.15,0,0,1,.29.82v16.1h8.65a1.07,1.07,0,0,1,.75.24,1,1,0,0,1,0,1.4,1.08,1.08,0,0,1-.75.24h-9.78A1.09,1.09,0,0,1,123.06,33.95Z" transform="translate(0 -10)" fill="#fff"/><path d="M139,33.58a5.55,5.55,0,0,1-2.17-2.38,8,8,0,0,1-.76-3.59,8,8,0,0,1,.76-3.59A5.54,5.54,0,0,1,139,21.63a6.25,6.25,0,0,1,3.25-.83,6.34,6.34,0,0,1,3.27.83A5.53,5.53,0,0,1,147.74,24a8,8,0,0,1,.76,3.59,8,8,0,0,1-.76,3.59,5.54,5.54,0,0,1-2.18,2.38,6.34,6.34,0,0,1-3.27.83A6.26,6.26,0,0,1,139,33.58Zm6.21-2.25a5.83,5.83,0,0,0,1-3.73,5.79,5.79,0,0,0-1-3.7,4,4,0,0,0-5.89,0,5.8,5.8,0,0,0-1,3.7,5.84,5.84,0,0,0,1,3.72A4.05,4.05,0,0,0,145.25,31.34Z" transform="translate(0 -10)" fill="#fff"/><path d="M162,26v7.32a1.09,1.09,0,0,1-.28.78,1,1,0,0,1-.76.3,1,1,0,0,1-1.07-1.08V32a3.85,3.85,0,0,1-1.55,1.79,4.56,4.56,0,0,1-2.41.63,5.26,5.26,0,0,1-2.32-.51,4.14,4.14,0,0,1-1.67-1.43,3.54,3.54,0,0,1-.62-2,3.29,3.29,0,0,1,.75-2.3A4.54,4.54,0,0,1,154.5,27a24.24,24.24,0,0,1,4.77-.36h0.59V25.72a3.55,3.55,0,0,0-.66-2.37,2.69,2.69,0,0,0-2.13-.75,7.84,7.84,0,0,0-3.7,1,2.44,2.44,0,0,1-1,.46,0.69,0.69,0,0,1-.54-0.24,0.9,0.9,0,0,1-.21-0.62,1,1,0,0,1,.23-0.66,2.67,2.67,0,0,1,.74-0.58,8.61,8.61,0,0,1,2.13-.85,9.4,9.4,0,0,1,2.37-.31Q162,20.79,162,26Zm-3.15,5.64a3.93,3.93,0,0,0,1-2.81V28h-0.48a23.82,23.82,0,0,0-3.59.2,3.47,3.47,0,0,0-1.75.67,1.77,1.77,0,0,0-.52,1.39,2.23,2.23,0,0,0,.76,1.74,2.76,2.76,0,0,0,1.92.69A3.47,3.47,0,0,0,158.83,31.6Z" transform="translate(0 -10)" fill="#fff"/><path d="M177.22,15.41a1,1,0,0,1,.29.75V33.29a1.06,1.06,0,0,1-.29.78,1.08,1.08,0,0,1-.8.3,1,1,0,0,1-.79-0.3,1.09,1.09,0,0,1-.28-0.78V31.83a4.32,4.32,0,0,1-1.73,1.91,5.14,5.14,0,0,1-2.67.67,5.39,5.39,0,0,1-3-.86,5.67,5.67,0,0,1-2-2.41,8.41,8.41,0,0,1-.72-3.59,8.26,8.26,0,0,1,.72-3.55,5.37,5.37,0,0,1,5.06-3.2,5.14,5.14,0,0,1,2.67.67,4.32,4.32,0,0,1,1.73,1.91V16.16a1,1,0,0,1,.28-0.77,1.07,1.07,0,0,1,.79-0.28A1.08,1.08,0,0,1,177.22,15.41Zm-2.91,15.9a5.85,5.85,0,0,0,1-3.7,5.79,5.79,0,0,0-1-3.69,3.54,3.54,0,0,0-2.93-1.29,3.61,3.61,0,0,0-3,1.29,5.59,5.59,0,0,0-1.06,3.63,5.85,5.85,0,0,0,1.06,3.73,3.57,3.57,0,0,0,3,1.33A3.52,3.52,0,0,0,174.31,31.31Z" transform="translate(0 -10)" fill="#fff"/><path d="M181.59,17.65a1.3,1.3,0,0,1-.4-1,1.27,1.27,0,0,1,.4-1,1.64,1.64,0,0,1,2.09,0,1.27,1.27,0,0,1,.4,1,1.3,1.3,0,0,1-.4,1A1.64,1.64,0,0,1,181.59,17.65Zm0.25,16.44a1,1,0,0,1-.31-0.79V21.93a1,1,0,0,1,.31-0.79,1.12,1.12,0,0,1,.79-0.28,1.08,1.08,0,0,1,.78.28,1.05,1.05,0,0,1,.29.79V33.29a1,1,0,0,1-.29.81,1.11,1.11,0,0,1-.78.27A1.13,1.13,0,0,1,181.84,34.08Z" transform="translate(0 -10)" fill="#fff"/><path d="M199,26v7.3a1,1,0,0,1-1.07,1.08,1.12,1.12,0,0,1-.8-0.28,1.05,1.05,0,0,1-.29-0.79V26.13a4.08,4.08,0,0,0-.71-2.66,2.82,2.82,0,0,0-2.26-.83,3.81,3.81,0,0,0-2.87,1.1,4.11,4.11,0,0,0-1.07,3v6.57a1,1,0,0,1-1.07,1.08,1.12,1.12,0,0,1-.8-0.28,1.05,1.05,0,0,1-.29-0.79V21.93a1.06,1.06,0,0,1,.29-0.78,1.08,1.08,0,0,1,.8-0.3,1,1,0,0,1,.76.3,1.05,1.05,0,0,1,.28.75v1.37a4.41,4.41,0,0,1,1.79-1.84,5.36,5.36,0,0,1,2.63-.63Q199,20.79,199,26Z" transform="translate(0 -10)" fill="#fff"/><path d="M214.35,21.15a1.06,1.06,0,0,1,.29.78V33.34a6,6,0,0,1-1.5,4.43,6,6,0,0,1-4.45,1.49,9.2,9.2,0,0,1-4.77-1.13,1.51,1.51,0,0,1-1-1.24,0.94,0.94,0,0,1,.2-0.62,0.65,0.65,0,0,1,.52-0.24,2.58,2.58,0,0,1,1,.38,12.4,12.4,0,0,0,1.85.78,7.06,7.06,0,0,0,2.17.3,3.79,3.79,0,0,0,2.87-1,4.11,4.11,0,0,0,1-2.95V31.21a4.09,4.09,0,0,1-1.73,1.94,5.39,5.39,0,0,1-2.75.67,5.73,5.73,0,0,1-3-.81,5.46,5.46,0,0,1-2.06-2.29,7.58,7.58,0,0,1-.74-3.42,7.58,7.58,0,0,1,.74-3.42A5.46,5.46,0,0,1,205,21.6a5.73,5.73,0,0,1,3-.81,5.27,5.27,0,0,1,2.71.67,4.3,4.3,0,0,1,1.74,1.91V21.93a1.09,1.09,0,0,1,.28-0.78,1,1,0,0,1,.79-0.3A1.08,1.08,0,0,1,214.35,21.15Zm-2.95,9.62a5.15,5.15,0,0,0,1.07-3.46,5.15,5.15,0,0,0-1.06-3.43,3.66,3.66,0,0,0-3-1.25,3.75,3.75,0,0,0-3,1.25,5.07,5.07,0,0,0-1.08,3.43,5.11,5.11,0,0,0,1.08,3.46,3.74,3.74,0,0,0,3,1.25A3.67,3.67,0,0,0,211.4,30.77Z" transform="translate(0 -10)" fill="#fff"/></g><path d="M17.38,34.81H15.81v4.63h0A1.57,1.57,0,0,1,14.22,41H1.59A1.57,1.57,0,0,1,0,39.45H0V11.56H0v0A1.57,1.57,0,0,1,1.59,10H17.38A12.52,12.52,0,0,1,30,22.41,12.52,12.52,0,0,1,17.38,34.81ZM48.5,10A15.5,15.5,0,1,1,33,25.5,15.5,15.5,0,0,1,48.5,10ZM99,40a1,1,0,0,1-1,1H62.94a0.94,0.94,0,0,1-.74-1.51l0,0L79.54,10.77h0a0.93,0.93,0,0,1,1.83,0h0L99,39.65l-0.06.08A0.93,0.93,0,0,1,99,40Z" transform="translate(0 -10)" fill="#fff"/></svg>