<svg xmlns="http://www.w3.org/2000/svg" width="50" height="53" viewBox="0 0 50 53">
    <g fill="none" fill-rule="evenodd">
        <path stroke="#FFF" stroke-linecap="round" stroke-linejoin="round" stroke-width="1.863" d="M4.312 10.377h40.45c2.12 0 3.84-1.77 3.84-3.956 0-2.222-1.765-4.04-3.92-4.04h-34.68M45.383 10.377H5.013c-2.156 0-3.92 1.819-3.92 4.04 0 2.186 1.719 3.957 3.839 3.957h8.38"/>
        <path stroke="#FFF" stroke-width="1.863" d="M4.312 10.377h40.45c2.12 0 3.84-1.77 3.84-3.956 0-2.222-1.765-4.04-3.92-4.04h-34.68M45.383 10.377H5.013c-2.156 0-3.92 1.819-3.92 4.04"/>
        <path stroke="#FFF" stroke-linecap="round" stroke-linejoin="round" stroke-width="1.863" d="M4.312 26.37h40.45c2.12 0 3.84-1.771 3.84-3.957 0-2.221-1.765-4.04-3.92-4.04H18.277M45.383 26.37H5.013c-2.156 0-3.92 1.818-3.92 4.04 0 2.185 1.719 3.956 3.839 3.956h40.45"/>
        <path stroke="#FFF" stroke-width="1.863" d="M24.691 26.37H5.013c-2.156 0-3.92 1.818-3.92 4.04 0 2.185 1.719 3.956 3.84 3.956h40.45"/>
        <path stroke="#FFF" stroke-linecap="round" stroke-linejoin="round" stroke-width="1.863" d="M35.866 42.362h8.896c2.12 0 3.84-1.77 3.84-3.956 0-2.222-1.765-4.04-3.92-4.04H4.311M44.681 34.366H4.311M31.416 42.362H5.013c-2.156 0-3.92 1.819-3.92 4.04 0 2.186 1.719 3.957 3.839 3.957h38.382"/>
        <path stroke="#FFF" stroke-linecap="round" stroke-linejoin="round" stroke-width="1.863" d="M1.093 46.403c0 2.185 1.719 3.956 3.839 3.956h38.381"/>
        <path fill="#FFF" d="M6.59 2.88c0 1.59-1.252 2.88-2.796 2.88C2.251 5.76 1 4.47 1 2.88 1 1.29 2.251 0 3.794 0 5.338 0 6.59 1.29 6.59 2.88M47.966 49.826c0 1.59-1.25 2.88-2.795 2.88-1.543 0-2.794-1.29-2.794-2.88 0-1.59 1.251-2.88 2.794-2.88 1.544 0 2.795 1.29 2.795 2.88M35.18 26.37c0 1.272 1 2.304 2.235 2.304 1.235 0 2.235-1.032 2.235-2.304 0-1.273-1-2.304-2.235-2.304-1.235 0-2.236 1.031-2.236 2.304"/>
        <path stroke="#FFF" stroke-linecap="round" stroke-linejoin="round" stroke-width="1.863" d="M35.18 26.37c0 1.272 1 2.304 2.235 2.304 1.235 0 2.235-1.032 2.235-2.304 0-1.273-1-2.304-2.235-2.304-1.235 0-2.236 1.031-2.236 2.304z"/>
        <path fill="#FFF" d="M10.552 26.37c0 1.272 1.001 2.304 2.236 2.304 1.235 0 2.235-1.032 2.235-2.304 0-1.273-1-2.304-2.235-2.304-1.235 0-2.236 1.031-2.236 2.304"/>
        <path stroke="#FFF" stroke-width="1.863" d="M10.552 26.37c0 1.272 1.001 2.304 2.236 2.304 1.235 0 2.235-1.032 2.235-2.304 0-1.273-1-2.304-2.235-2.304-1.235 0-2.236 1.031-2.236 2.304z"/>
        <path fill="#FFF" d="M22.307 26.37c0 1.59 1.25 2.88 2.795 2.88 1.543 0 2.794-1.29 2.794-2.88 0-1.59-1.251-2.88-2.794-2.88-1.544 0-2.795 1.29-2.795 2.88"/>
        <path stroke="#FFF" stroke-width="1.863" d="M22.307 26.37c0 1.59 1.25 2.88 2.795 2.88 1.543 0 2.794-1.29 2.794-2.88 0-1.59-1.251-2.88-2.794-2.88-1.544 0-2.795 1.29-2.795 2.88z"/>
        <path stroke="#FFF" stroke-linecap="round" stroke-linejoin="round" stroke-width="1.863" d="M4.312 10.377h40.45c2.12 0 3.84-1.77 3.84-3.956M45.383 10.377H5.013"/>
        <path stroke="#FFF" stroke-linecap="round" stroke-linejoin="round" stroke-width="1.863" d="M4.312 10.377h40.45c2.12 0 3.84-1.77 3.84-3.956M45.383 10.377H5.013"/>
    </g>
</svg>
