<svg version="1.1" xmlns="http://www.w3.org/2000/svg" xmlns:xlink="http://www.w3.org/1999/xlink" x="0px" y="0px" viewBox="0 0 1000 1000" enable-background="new 0 0 1000 1000" xml:space="preserve">
<g><path fill="#fff" d="M956.9,125.5l-71.7,71.7c-39.2-49.8-88-91.9-143.2-123.3C668.6,32.1,584.9,10,500,10c-66.1,0-130.3,13-190.8,38.5c-58.4,24.7-110.8,60-155.7,105c-45,45-80.3,97.4-105,155.7C23,369.7,10,433.9,10,500c0,66.1,13,130.3,38.5,190.8c24.7,58.4,60,110.8,105,155.7c45,45,97.4,80.3,155.7,105C369.7,977,433.9,990,500,990c87.6,0,173.6-23.4,248.7-67.7c72.8-43,133.6-104.4,175.9-177.6c19.3-33.5,7.9-76.3-25.6-95.6c-33.5-19.3-76.3-7.9-95.6,25.6c-30.2,52.4-73.7,96.3-125.8,127C624,833.3,562.6,850,500,850c-93.5,0-181.4-36.4-247.5-102.5C186.4,681.4,150,593.5,150,500c0-93.5,36.4-181.4,102.5-247.5C318.6,186.4,406.5,150,500,150c60.7,0,120.5,15.8,172.8,45.6c44.3,25.2,82.9,60.1,112.5,101.6l-99.8,99.8c-18.3,18.3-12.1,33.1,13.7,33.1H955c19.4,0,35-15.7,35-35.1V139.2C990,113.4,975.2,107.3,956.9,125.5z"/></g>
</svg>